<?xml version="1.0" encoding="UTF-8"?>
<svg xmlns="http://www.w3.org/2000/svg" xmlns:xlink="http://www.w3.org/1999/xlink" width="375pt" height="374.999991pt" viewBox="0 0 375 374.999991" version="1.2">
<defs>
<clipPath id="clip1">
  <path d="M 174 14.421875 L 195 14.421875 L 195 57 L 174 57 Z M 174 14.421875 "/>
</clipPath>
</defs>
<g id="surface1">
<path style=" stroke:none;fill-rule:nonzero;fill:rgb(98.81897%,90.979004%,56.469727%);fill-opacity:1;" d="M 277.300781 282.636719 C 308.132812 282.636719 329.691406 272.636719 343.109375 271.40625 C 342.644531 229.496094 339.691406 183.324219 339.691406 183.324219 L 30.667969 183.324219 C 30.667969 183.324219 26.632812 229.539062 26.226562 271.058594 C 46.546875 273.210938 85.738281 283.113281 131.414062 283.113281 C 176.070312 283.113281 235.929688 282.636719 277.300781 282.636719 "/>
<path style=" stroke:none;fill-rule:nonzero;fill:rgb(94.509888%,28.239441%,49.01886%);fill-opacity:1;" d="M 30.667969 183.324219 L 339.691406 183.324219 C 339.691406 183.324219 356.253906 217.863281 341.550781 232.976562 C 320.890625 254.222656 330.765625 221.15625 320.460938 219.808594 C 314.503906 219.027344 317.128906 254.636719 294.421875 254.222656 C 260.058594 253.597656 265.023438 219.476562 254.53125 219.808594 C 238.609375 220.3125 265.777344 271.003906 228.730469 261.25 C 209.890625 256.289062 214.664062 229.734375 203.386719 231.078125 C 194.8125 232.097656 200.359375 243.875 186.886719 242.648438 C 173.261719 241.410156 179.292969 227.019531 165.027344 227.355469 C 157.003906 227.546875 153.847656 252.570312 138.136719 252.570312 C 123.667969 252.570312 122.207031 228.890625 115.117188 229.011719 C 106.820312 229.152344 108.15625 258.355469 88.363281 233.21875 C 82.371094 225.609375 74.015625 253.964844 57.429688 243.0625 C 46.179688 235.667969 54.613281 210.136719 48.085938 208.492188 C 39.925781 206.4375 31.953125 245.351562 24.863281 226.945312 C 18.726562 211.007812 30.667969 183.324219 30.667969 183.324219 "/>
<path style=" stroke:none;fill-rule:nonzero;fill:rgb(39.99939%,13.729858%,8.239746%);fill-opacity:1;" d="M 271.1875 333.878906 C 220.191406 332.3125 153.25 333.285156 101.4375 331.695312 C 71.890625 330.789062 46.824219 320.964844 30.691406 318.808594 C 33.699219 332.949219 37.105469 341.949219 37.105469 341.949219 C 37.105469 341.949219 76.765625 361.292969 178.03125 358.214844 C 275.292969 356.222656 328.429688 341.949219 328.429688 341.949219 C 328.429688 341.949219 331.332031 336.738281 334.558594 328.019531 C 319.421875 329.121094 297.273438 334.679688 271.1875 333.878906 "/>
<path style=" stroke:none;fill-rule:nonzero;fill:rgb(28.62854%,9.01947%,7.839966%);fill-opacity:1;" d="M 271.1875 315.789062 C 220.191406 314.222656 153.25 313.023438 101.4375 311.433594 C 70.535156 310.484375 44.527344 308.464844 28.519531 306.980469 C 29.171875 311.21875 29.917969 315.179688 30.691406 318.808594 C 46.824219 320.964844 71.890625 330.789062 101.4375 331.695312 C 153.25 333.285156 220.191406 332.3125 271.1875 333.878906 C 297.273438 334.679688 319.421875 329.121094 334.558594 328.019531 C 335.824219 324.605469 337.136719 320.65625 338.347656 316.265625 C 323.246094 316.53125 299.539062 316.65625 271.1875 315.789062 "/>
<path style=" stroke:none;fill-rule:nonzero;fill:rgb(83.529663%,77.648926%,34.118652%);fill-opacity:1;" d="M 343.109375 271.40625 C 329.691406 272.636719 308.132812 280.46875 277.300781 280.46875 C 235.929688 280.46875 176.070312 283.113281 131.414062 283.113281 C 85.738281 283.113281 46.546875 273.210938 26.226562 271.058594 C 26.207031 273.261719 26.191406 275.457031 26.191406 277.625 C 26.191406 288.207031 27.164062 298.179688 28.519531 306.980469 C 44.527344 308.464844 70.535156 319.171875 101.4375 320.121094 C 153.25 321.710938 220.191406 320.738281 271.1875 322.304688 C 299.539062 323.175781 323.246094 316.53125 338.347656 316.265625 C 341.011719 306.597656 343.171875 294.824219 343.171875 282.011719 C 343.171875 278.53125 343.152344 274.980469 343.109375 271.40625 "/>
<path style=" stroke:none;fill-rule:nonzero;fill:rgb(98.81897%,90.979004%,56.469727%);fill-opacity:1;" d="M 329.542969 239.578125 C 326.808594 237.71875 326.675781 231.003906 325.332031 225.898438 C 324.679688 225.292969 323.894531 224.894531 322.9375 224.769531 C 316.976562 223.988281 319.605469 259.59375 296.898438 259.179688 C 277.652344 258.832031 270.746094 247.976562 266.546875 238.550781 C 264.410156 234.785156 262.949219 230.917969 261.582031 227.679688 C 260.351562 225.824219 258.945312 224.707031 257.007812 224.769531 C 241.082031 225.269531 268.25 275.960938 231.207031 266.207031 C 223.285156 264.125 219.542969 258.222656 217.023438 252.183594 C 214.363281 247.789062 212.921875 242.703125 211.347656 238.613281 C 210.007812 236.777344 208.3125 235.746094 205.859375 236.035156 C 197.289062 237.054688 202.835938 248.835938 189.363281 247.609375 C 175.738281 246.367188 181.765625 231.980469 167.5 232.316406 C 159.480469 232.507812 156.320312 257.527344 140.613281 257.527344 C 131.308594 257.527344 127.382812 247.746094 123.886719 240.789062 C 123.742188 240.519531 123.609375 240.253906 123.472656 239.980469 C 121.675781 236.515625 119.945312 233.929688 117.589844 233.96875 C 109.292969 234.113281 110.632812 263.316406 90.839844 238.179688 C 84.84375 230.570312 76.492188 258.925781 59.902344 248.023438 C 57.359375 246.351562 55.828125 243.75 54.898438 240.707031 C 49.558594 233.90625 51.523438 220.757812 50.710938 213.511719 C 50.660156 213.496094 50.617188 213.464844 50.5625 213.453125 C 42.445312 211.410156 34.507812 249.917969 27.441406 232.167969 C 26.835938 244.542969 26.355469 258.03125 26.226562 271.058594 C 46.546875 273.210938 85.738281 283.113281 131.414062 283.113281 C 176.070312 283.113281 235.929688 282.636719 277.300781 282.636719 C 308.132812 282.636719 329.691406 272.636719 343.109375 271.40625 C 342.992188 260.800781 342.714844 249.925781 342.367188 239.589844 C 333.265625 248.34375 330.851562 245.191406 329.542969 239.578125 "/>
<path style=" stroke:none;fill-rule:nonzero;fill:rgb(83.529663%,77.648926%,34.118652%);fill-opacity:1;" d="M 26.945312 230.765625 C 27.074219 231.152344 27.195312 231.535156 27.335938 231.90625 C 27.371094 231.996094 27.40625 232.078125 27.441406 232.167969 C 27.460938 231.875 27.472656 231.578125 27.488281 231.289062 C 27.308594 231.144531 27.128906 230.96875 26.945312 230.765625 "/>
<path style=" stroke:none;fill-rule:nonzero;fill:rgb(83.529663%,77.648926%,34.118652%);fill-opacity:1;" d="M 341.550781 232.976562 C 335.050781 239.664062 331.574219 240.964844 329.542969 239.578125 C 330.851562 245.191406 333.265625 248.34375 342.367188 239.589844 C 342.285156 237.148438 342.199219 234.742188 342.109375 232.371094 C 341.929688 232.578125 341.746094 232.777344 341.550781 232.976562 "/>
<path style=" stroke:none;fill-rule:nonzero;fill:rgb(83.529663%,77.648926%,34.118652%);fill-opacity:1;" d="M 203.386719 231.078125 C 194.8125 232.097656 200.359375 243.875 186.886719 242.648438 C 173.261719 241.410156 179.292969 227.019531 165.027344 227.355469 C 157.003906 227.546875 153.847656 252.570312 138.136719 252.570312 C 130.917969 252.570312 126.941406 246.679688 123.886719 240.789062 C 127.382812 247.746094 131.308594 257.527344 140.613281 257.527344 C 156.320312 257.527344 159.480469 232.507812 167.5 232.316406 C 181.765625 231.980469 175.738281 246.367188 189.363281 247.609375 C 202.835938 248.835938 197.289062 237.054688 205.859375 236.035156 C 208.3125 235.746094 210.007812 236.777344 211.347656 238.613281 C 209.554688 233.941406 207.582031 230.578125 203.386719 231.078125 "/>
<path style=" stroke:none;fill-rule:nonzero;fill:rgb(83.529663%,77.648926%,34.118652%);fill-opacity:1;" d="M 320.460938 219.808594 C 314.503906 219.027344 317.128906 254.636719 294.421875 254.222656 C 278.511719 253.929688 271.035156 246.460938 266.546875 238.550781 C 270.746094 247.976562 277.652344 258.832031 296.898438 259.179688 C 319.605469 259.59375 316.976562 223.988281 322.9375 224.769531 C 323.894531 224.894531 324.679688 225.292969 325.332031 225.898438 C 324.488281 222.714844 323.175781 220.164062 320.460938 219.808594 "/>
<path style=" stroke:none;fill-rule:nonzero;fill:rgb(83.529663%,77.648926%,34.118652%);fill-opacity:1;" d="M 254.53125 219.808594 C 238.609375 220.3125 265.777344 271.003906 228.730469 261.25 C 223.03125 259.75 219.5 256.265625 217.023438 252.183594 C 219.542969 258.222656 223.285156 264.125 231.207031 266.207031 C 268.25 275.960938 241.082031 225.269531 257.007812 224.769531 C 258.945312 224.707031 260.351562 225.824219 261.582031 227.679688 C 259.625 223.046875 257.847656 219.703125 254.53125 219.808594 "/>
<path style=" stroke:none;fill-rule:nonzero;fill:rgb(83.529663%,77.648926%,34.118652%);fill-opacity:1;" d="M 50.5625 213.453125 C 50.617188 213.464844 50.660156 213.496094 50.710938 213.511719 C 50.40625 210.792969 49.710938 208.898438 48.085938 208.492188 C 40.917969 206.691406 33.894531 236.488281 27.488281 231.289062 C 27.472656 231.578125 27.460938 231.875 27.441406 232.167969 C 34.507812 249.917969 42.445312 211.410156 50.5625 213.453125 "/>
<path style=" stroke:none;fill-rule:nonzero;fill:rgb(83.529663%,77.648926%,34.118652%);fill-opacity:1;" d="M 115.117188 229.011719 C 106.820312 229.152344 108.15625 258.355469 88.363281 233.21875 C 82.371094 225.609375 74.015625 253.964844 57.429688 243.0625 C 56.4375 242.414062 55.609375 241.613281 54.898438 240.707031 C 55.828125 243.75 57.359375 246.351562 59.902344 248.023438 C 76.492188 258.925781 84.84375 230.570312 90.839844 238.179688 C 110.632812 263.316406 109.292969 234.113281 117.589844 233.96875 C 119.945312 233.929688 121.675781 236.515625 123.472656 239.980469 C 120.613281 234.34375 118.511719 228.953125 115.117188 229.011719 "/>
<path style=" stroke:none;fill-rule:nonzero;fill:rgb(94.509888%,28.239441%,49.01886%);fill-opacity:1;" d="M 341.789062 188.285156 C 340.589844 185.210938 339.691406 183.324219 339.691406 183.324219 C 339.691406 183.328125 339.804688 185.113281 339.992188 188.285156 L 341.789062 188.285156 "/>
<path style=" stroke:none;fill-rule:nonzero;fill:rgb(94.509888%,28.239441%,49.01886%);fill-opacity:1;" d="M 123.886719 240.789062 C 123.746094 240.515625 123.609375 240.246094 123.472656 239.980469 C 123.609375 240.253906 123.742188 240.519531 123.886719 240.789062 "/>
<path style=" stroke:none;fill-rule:nonzero;fill:rgb(95.289612%,37.649536%,60.778809%);fill-opacity:1;" d="M 339.691406 184.480469 C 339.691406 193.375 270.511719 200.585938 185.179688 200.585938 C 99.84375 200.585938 30.667969 193.375 30.667969 184.480469 C 30.667969 175.582031 99.84375 168.367188 185.179688 168.367188 C 270.511719 168.367188 339.691406 175.582031 339.691406 184.480469 "/>
<path style=" stroke:none;fill-rule:nonzero;fill:rgb(39.99939%,13.729858%,8.239746%);fill-opacity:1;" d="M 47.34375 306.515625 C 42.832031 306.519531 40.914062 304.476562 40.097656 302.691406 C 38.433594 299.066406 40.242188 293.929688 41.855469 292.519531 C 43.472656 291.109375 46.328125 289.957031 49.066406 290.5625 C 50.449219 290.871094 52.308594 291.761719 53.316406 294.269531 C 54.316406 296.746094 53.21875 300.085938 50.875 301.707031 C 48.976562 303.023438 46.703125 302.894531 44.636719 301.359375 C 43.777344 300.714844 43.402344 299.621094 43.632812 298.433594 C 43.898438 297.097656 44.820312 296.011719 45.992188 295.667969 C 46.625 295.484375 47.894531 295.367188 49.269531 296.667969 C 49.613281 296.992188 49.613281 297.523438 49.269531 297.847656 C 48.921875 298.179688 48.359375 298.179688 48.011719 297.847656 C 47.636719 297.492188 47.074219 297.105469 46.519531 297.269531 C 46 297.421875 45.519531 298.039062 45.378906 298.738281 C 45.335938 298.949219 45.242188 299.671875 45.738281 300.042969 C 47.171875 301.105469 48.582031 301.214844 49.828125 300.355469 C 51.507812 299.191406 52.367188 296.625 51.65625 294.867188 C 51.070312 293.402344 50.0625 292.503906 48.660156 292.195312 C 46.867188 291.796875 44.5625 292.4375 43.058594 293.75 C 42.003906 294.671875 40.328125 298.972656 41.726562 302.03125 C 42.671875 304.097656 44.878906 305.03125 48.28125 304.8125 C 51.089844 304.625 55.117188 301.421875 55.550781 298.265625 C 56.109375 294.238281 54.28125 291.226562 52.386719 289.746094 C 49.785156 287.722656 47.285156 287.953125 43.589844 289.089844 C 40.625 289.996094 39.417969 293.472656 39.40625 293.507812 C 39.261719 293.953125 38.761719 294.195312 38.292969 294.054688 C 37.824219 293.914062 37.566406 293.449219 37.714844 293.003906 C 37.773438 292.832031 39.199219 288.671875 43.039062 287.496094 C 46.394531 286.464844 49.96875 285.691406 53.515625 288.457031 C 55.777344 290.21875 57.964844 293.777344 57.3125 298.480469 C 56.753906 302.511719 51.949219 306.246094 48.410156 306.480469 C 48.039062 306.507812 47.679688 306.515625 47.34375 306.515625 "/>
<path style=" stroke:none;fill-rule:nonzero;fill:rgb(39.99939%,13.729858%,8.239746%);fill-opacity:1;" d="M 87.253906 304.542969 C 85.085938 308.269531 82.265625 308.878906 80.214844 308.695312 C 76.042969 308.328125 72.136719 304.363281 71.605469 302.355469 C 71.070312 300.339844 71.367188 297.417969 73.25 295.445312 C 74.199219 294.453125 75.921875 293.339844 78.738281 293.710938 C 81.523438 294.078125 84.097656 296.585938 84.476562 299.304688 C 84.785156 301.507812 83.574219 303.324219 81.15625 304.296875 C 80.144531 304.699219 78.949219 304.488281 77.957031 303.722656 C 76.839844 302.863281 76.273438 301.574219 76.519531 300.445312 C 76.648438 299.832031 77.148438 298.726562 79.019531 298.210938 C 79.488281 298.082031 79.980469 298.335938 80.121094 298.78125 C 80.257812 299.222656 79.988281 299.6875 79.519531 299.820312 C 79.003906 299.960938 78.375 300.238281 78.257812 300.777344 C 78.148438 301.28125 78.492188 301.976562 79.078125 302.425781 C 79.253906 302.5625 79.878906 302.988281 80.460938 302.753906 C 82.140625 302.082031 82.921875 300.964844 82.71875 299.523438 C 82.445312 297.570312 80.46875 295.628906 78.492188 295.367188 C 76.851562 295.152344 75.53125 295.554688 74.570312 296.566406 C 73.339844 297.859375 72.828125 300.070312 73.328125 301.949219 C 73.675781 303.265625 76.867188 306.71875 80.382812 307.027344 C 82.761719 307.238281 84.6875 305.863281 86.117188 302.941406 C 87.292969 300.53125 86.25 295.660156 83.527344 293.785156 C 80.050781 291.386719 76.371094 291.453125 74.089844 292.308594 C 70.953125 293.488281 69.964844 295.664062 69.246094 299.269531 C 68.664062 302.15625 71.320312 304.828125 71.347656 304.851562 C 71.683594 305.1875 71.675781 305.71875 71.316406 306.039062 C 70.964844 306.355469 70.40625 306.34375 70.0625 306.011719 C 69.929688 305.878906 66.75 302.703125 67.5 298.957031 C 68.15625 295.6875 69.15625 292.359375 73.429688 290.75 C 76.152344 289.726562 80.515625 289.632812 84.574219 292.429688 C 88.050781 294.828125 89.21875 300.597656 87.730469 303.640625 C 87.574219 303.957031 87.414062 304.257812 87.253906 304.542969 "/>
<path style=" stroke:none;fill-rule:nonzero;fill:rgb(39.99939%,13.729858%,8.239746%);fill-opacity:1;" d="M 107.945312 312.082031 C 103.4375 312.082031 101.519531 310.042969 100.699219 308.257812 C 99.039062 304.628906 100.84375 299.492188 102.457031 298.085938 C 104.074219 296.671875 106.929688 295.519531 109.667969 296.128906 C 111.054688 296.433594 112.914062 297.324219 113.921875 299.835938 C 114.917969 302.316406 113.820312 305.648438 111.476562 307.269531 C 109.582031 308.585938 107.304688 308.457031 105.242188 306.921875 C 104.378906 306.28125 104.003906 305.183594 104.238281 304 C 104.5 302.660156 105.425781 301.574219 106.597656 301.234375 C 107.226562 301.050781 108.496094 300.933594 109.871094 302.230469 C 110.21875 302.558594 110.21875 303.085938 109.871094 303.414062 C 109.527344 303.742188 108.960938 303.742188 108.617188 303.414062 C 108.238281 303.058594 107.675781 302.667969 107.121094 302.835938 C 106.597656 302.984375 106.121094 303.605469 105.984375 304.304688 C 105.941406 304.515625 105.84375 305.238281 106.34375 305.609375 C 107.773438 306.671875 109.1875 306.78125 110.429688 305.921875 C 112.113281 304.753906 112.96875 302.1875 112.261719 300.429688 C 111.671875 298.964844 110.664062 298.070312 109.261719 297.757812 C 107.46875 297.363281 105.167969 298 103.660156 299.316406 C 102.605469 300.238281 100.929688 304.535156 102.328125 307.59375 C 103.277344 309.660156 105.484375 310.597656 108.886719 310.375 C 111.691406 310.191406 115.71875 306.984375 116.152344 303.828125 C 116.710938 299.800781 114.882812 296.789062 112.988281 295.3125 C 110.390625 293.285156 107.890625 293.515625 104.191406 294.652344 C 101.226562 295.558594 100.023438 299.039062 100.007812 299.074219 C 99.863281 299.515625 99.363281 299.761719 98.898438 299.617188 C 98.429688 299.480469 98.167969 299.011719 98.316406 298.570312 C 98.375 298.394531 99.800781 294.238281 103.644531 293.058594 C 107 292.03125 110.570312 291.253906 114.117188 294.023438 C 116.378906 295.78125 118.566406 299.34375 117.917969 304.046875 C 117.359375 308.074219 112.554688 311.8125 109.011719 312.046875 C 108.640625 312.070312 108.285156 312.082031 107.945312 312.082031 "/>
<path style=" stroke:none;fill-rule:nonzero;fill:rgb(39.99939%,13.729858%,8.239746%);fill-opacity:1;" d="M 146.246094 307.070312 C 144.078125 310.796875 141.261719 311.40625 139.210938 311.226562 C 135.039062 310.859375 131.128906 306.894531 130.597656 304.886719 C 130.0625 302.867188 130.363281 299.949219 132.242188 297.976562 C 133.195312 296.980469 134.917969 295.871094 137.730469 296.242188 C 140.515625 296.605469 143.089844 299.117188 143.472656 301.832031 C 143.78125 304.035156 142.570312 305.855469 140.152344 306.824219 C 139.140625 307.230469 137.941406 307.015625 136.953125 306.253906 C 135.832031 305.390625 135.269531 304.105469 135.515625 302.972656 C 135.644531 302.359375 136.144531 301.253906 138.015625 300.742188 C 138.484375 300.613281 138.980469 300.867188 139.113281 301.308594 C 139.253906 301.757812 138.980469 302.21875 138.511719 302.351562 C 138 302.488281 137.367188 302.769531 137.25 303.304688 C 137.144531 303.8125 137.488281 304.507812 138.074219 304.957031 C 138.25 305.089844 138.871094 305.519531 139.457031 305.285156 C 141.132812 304.613281 141.914062 303.492188 141.710938 302.054688 C 141.4375 300.101562 139.464844 298.160156 137.488281 297.902344 C 135.847656 297.683594 134.527344 298.085938 133.566406 299.097656 C 132.335938 300.386719 131.820312 302.601562 132.320312 304.476562 C 132.667969 305.796875 135.859375 309.246094 139.375 309.558594 C 141.753906 309.765625 143.683594 308.390625 145.109375 305.46875 C 146.289062 303.058594 145.242188 298.1875 142.519531 296.3125 C 139.046875 293.914062 135.367188 293.980469 133.082031 294.839844 C 129.949219 296.015625 128.960938 298.191406 128.242188 301.796875 C 127.660156 304.683594 130.3125 307.355469 130.34375 307.382812 C 130.679688 307.714844 130.667969 308.246094 130.3125 308.566406 C 129.960938 308.886719 129.398438 308.875 129.058594 308.539062 C 128.925781 308.40625 125.746094 305.230469 126.496094 301.488281 C 127.152344 298.21875 128.148438 294.886719 132.425781 293.28125 C 135.152344 292.257812 139.507812 292.160156 143.566406 294.957031 C 147.046875 297.359375 148.210938 303.128906 146.726562 306.171875 C 146.566406 306.488281 146.410156 306.789062 146.246094 307.070312 "/>
<path style=" stroke:none;fill-rule:nonzero;fill:rgb(39.99939%,13.729858%,8.239746%);fill-opacity:1;" d="M 259.109375 312.429688 C 254.601562 312.429688 252.679688 310.386719 251.863281 308.605469 C 250.203125 304.976562 252.007812 299.839844 253.617188 298.433594 C 255.238281 297.019531 258.097656 295.867188 260.832031 296.472656 C 262.214844 296.78125 264.074219 297.675781 265.082031 300.179688 C 266.078125 302.660156 264.988281 305.996094 262.640625 307.617188 C 260.742188 308.929688 258.472656 308.800781 256.40625 307.269531 C 255.542969 306.625 255.167969 305.53125 255.398438 304.34375 C 255.664062 303.007812 256.589844 301.925781 257.757812 301.578125 C 258.394531 301.394531 259.660156 301.277344 261.035156 302.574219 C 261.378906 302.902344 261.378906 303.433594 261.035156 303.761719 C 260.6875 304.085938 260.128906 304.085938 259.777344 303.761719 C 259.402344 303.40625 258.839844 303.015625 258.285156 303.179688 C 257.761719 303.332031 257.28125 303.953125 257.144531 304.648438 C 257.105469 304.863281 257.007812 305.582031 257.503906 305.953125 C 258.9375 307.019531 260.347656 307.125 261.59375 306.265625 C 263.273438 305.101562 264.132812 302.535156 263.421875 300.773438 C 262.835938 299.316406 261.828125 298.417969 260.425781 298.105469 C 258.636719 297.707031 256.332031 298.347656 254.824219 299.664062 C 253.769531 300.582031 252.09375 304.882812 253.492188 307.941406 C 254.4375 310.007812 256.648438 310.941406 260.050781 310.71875 C 262.851562 310.535156 266.882812 307.328125 267.320312 304.179688 C 267.878906 300.148438 266.046875 297.136719 264.152344 295.660156 C 261.550781 293.632812 259.054688 293.863281 255.355469 294.996094 C 252.394531 295.90625 251.183594 299.386719 251.175781 299.421875 C 251.027344 299.859375 250.527344 300.105469 250.058594 299.964844 C 249.59375 299.824219 249.335938 299.355469 249.480469 298.914062 C 249.542969 298.738281 250.964844 294.585938 254.808594 293.40625 C 258.160156 292.378906 261.734375 291.605469 265.28125 294.367188 C 267.546875 296.132812 269.730469 299.6875 269.078125 304.394531 C 268.523438 308.421875 263.71875 312.160156 260.171875 312.390625 C 259.800781 312.414062 259.445312 312.429688 259.109375 312.429688 "/>
<path style=" stroke:none;fill-rule:nonzero;fill:rgb(39.99939%,13.729858%,8.239746%);fill-opacity:1;" d="M 179.109375 306.5625 C 176.945312 310.292969 174.125 310.902344 172.078125 310.71875 C 167.90625 310.351562 163.996094 306.386719 163.464844 304.378906 C 162.929688 302.359375 163.226562 299.445312 165.109375 297.472656 C 166.058594 296.472656 167.78125 295.363281 170.597656 295.734375 C 173.382812 296.101562 175.957031 298.609375 176.335938 301.328125 C 176.644531 303.53125 175.433594 305.351562 173.019531 306.320312 C 172.003906 306.726562 170.808594 306.511719 169.816406 305.746094 C 168.699219 304.886719 168.136719 303.601562 168.378906 302.464844 C 168.507812 301.851562 169.007812 300.75 170.878906 300.234375 C 171.347656 300.105469 171.839844 300.359375 171.980469 300.804688 C 172.117188 301.25 171.847656 301.714844 171.378906 301.84375 C 170.863281 301.980469 170.234375 302.261719 170.117188 302.800781 C 170.007812 303.304688 170.351562 304 170.9375 304.449219 C 171.117188 304.585938 171.738281 305.011719 172.320312 304.777344 C 174 304.105469 174.78125 302.988281 174.578125 301.550781 C 174.304688 299.597656 172.328125 297.65625 170.351562 297.394531 C 168.710938 297.175781 167.390625 297.582031 166.425781 298.589844 C 165.199219 299.882812 164.6875 302.09375 165.1875 303.972656 C 165.535156 305.289062 168.726562 308.742188 172.242188 309.054688 C 174.621094 309.261719 176.550781 307.882812 177.976562 304.960938 C 179.152344 302.558594 178.109375 297.683594 175.386719 295.804688 C 171.910156 293.410156 168.230469 293.472656 165.949219 294.332031 C 162.8125 295.511719 161.824219 297.6875 161.105469 301.292969 C 160.527344 304.179688 163.179688 306.851562 163.207031 306.878906 C 163.542969 307.210938 163.535156 307.742188 163.179688 308.058594 C 162.824219 308.378906 162.265625 308.367188 161.925781 308.035156 C 161.789062 307.902344 158.609375 304.726562 159.359375 300.980469 C 160.019531 297.710938 161.015625 294.382812 165.289062 292.777344 C 168.011719 291.753906 172.375 291.65625 176.433594 294.457031 C 179.914062 296.851562 181.078125 302.621094 179.589844 305.664062 C 179.433594 305.984375 179.273438 306.28125 179.109375 306.5625 "/>
<path style=" stroke:none;fill-rule:nonzero;fill:rgb(39.99939%,13.729858%,8.239746%);fill-opacity:1;" d="M 199.800781 311.070312 C 195.296875 311.070312 193.378906 309.03125 192.5625 307.246094 C 190.898438 303.617188 192.707031 298.480469 194.316406 297.074219 C 195.9375 295.664062 198.789062 294.511719 201.527344 295.117188 C 202.914062 295.425781 204.773438 296.316406 205.78125 298.824219 C 206.777344 301.304688 205.679688 304.640625 203.335938 306.261719 C 201.441406 307.574219 199.167969 307.445312 197.101562 305.910156 C 196.238281 305.269531 195.863281 304.175781 196.097656 302.984375 C 196.359375 301.648438 197.285156 300.566406 198.457031 300.222656 C 199.085938 300.039062 200.355469 299.917969 201.730469 301.21875 C 202.078125 301.546875 202.078125 302.074219 201.730469 302.402344 C 201.386719 302.730469 200.824219 302.730469 200.476562 302.402344 C 200.097656 302.046875 199.535156 301.660156 198.980469 301.820312 C 198.457031 301.976562 197.980469 302.59375 197.84375 303.292969 C 197.800781 303.507812 197.703125 304.226562 198.199219 304.59375 C 199.632812 305.660156 201.046875 305.769531 202.289062 304.90625 C 203.972656 303.746094 204.828125 301.179688 204.121094 299.417969 C 203.535156 297.957031 202.523438 297.058594 201.125 296.746094 C 199.328125 296.351562 197.027344 296.988281 195.519531 298.304688 C 194.464844 299.222656 192.789062 303.527344 194.1875 306.582031 C 195.136719 308.648438 197.34375 309.582031 200.746094 309.363281 C 203.550781 309.179688 207.578125 305.972656 208.015625 302.816406 C 208.570312 298.792969 206.742188 295.777344 204.847656 294.300781 C 202.25 292.277344 199.75 292.503906 196.050781 293.640625 C 193.089844 294.550781 191.882812 298.027344 191.867188 298.0625 C 191.722656 298.5 191.222656 298.75 190.757812 298.609375 C 190.289062 298.46875 190.03125 298 190.175781 297.558594 C 190.234375 297.382812 191.660156 293.226562 195.503906 292.050781 C 198.859375 291.019531 202.433594 290.246094 205.980469 293.011719 C 208.242188 294.773438 210.425781 298.328125 209.777344 303.035156 C 209.21875 307.066406 204.414062 310.800781 200.871094 311.03125 C 200.5 311.058594 200.144531 311.070312 199.800781 311.070312 "/>
<path style=" stroke:none;fill-rule:nonzero;fill:rgb(39.99939%,13.729858%,8.239746%);fill-opacity:1;" d="M 238.105469 307.578125 C 235.9375 311.304688 233.121094 311.914062 231.070312 311.730469 C 226.898438 311.363281 222.992188 307.398438 222.457031 305.390625 C 221.925781 303.375 222.222656 300.453125 224.101562 298.484375 C 225.054688 297.488281 226.777344 296.375 229.589844 296.746094 C 232.375 297.113281 234.949219 299.621094 235.332031 302.339844 C 235.640625 304.542969 234.429688 306.359375 232.011719 307.332031 C 231 307.734375 229.804688 307.523438 228.8125 306.757812 C 227.691406 305.898438 227.128906 304.609375 227.375 303.480469 C 227.507812 302.867188 228.003906 301.761719 229.875 301.25 C 230.34375 301.117188 230.839844 301.371094 230.972656 301.816406 C 231.113281 302.257812 230.839844 302.726562 230.371094 302.855469 C 229.863281 302.996094 229.226562 303.273438 229.113281 303.8125 C 229.003906 304.316406 229.347656 305.011719 229.933594 305.460938 C 230.109375 305.597656 230.730469 306.023438 231.316406 305.789062 C 232.996094 305.117188 233.773438 304 233.570312 302.558594 C 233.300781 300.605469 231.324219 298.664062 229.347656 298.40625 C 227.707031 298.1875 226.386719 298.589844 225.425781 299.601562 C 224.195312 300.894531 223.679688 303.105469 224.179688 304.984375 C 224.527344 306.300781 227.71875 309.753906 231.238281 310.0625 C 233.613281 310.273438 235.542969 308.898438 236.972656 305.976562 C 238.148438 303.566406 237.101562 298.695312 234.378906 296.820312 C 230.90625 294.421875 227.226562 294.488281 224.941406 295.34375 C 221.808594 296.523438 220.824219 298.699219 220.101562 302.304688 C 219.519531 305.191406 222.171875 307.863281 222.203125 307.886719 C 222.539062 308.222656 222.527344 308.753906 222.171875 309.074219 C 221.820312 309.394531 221.257812 309.378906 220.917969 309.046875 C 220.785156 308.914062 217.605469 305.738281 218.355469 301.992188 C 219.011719 298.722656 220.007812 295.394531 224.285156 293.789062 C 227.011719 292.761719 231.367188 292.667969 235.429688 295.464844 C 238.90625 297.863281 240.070312 303.636719 238.585938 306.675781 C 238.429688 306.996094 238.269531 307.292969 238.105469 307.578125 "/>
<path style=" stroke:none;fill-rule:nonzero;fill:rgb(39.99939%,13.729858%,8.239746%);fill-opacity:1;" d="M 320.675781 309.394531 C 316.171875 309.394531 314.25 307.351562 313.4375 305.570312 C 311.773438 301.941406 313.582031 296.800781 315.1875 295.398438 C 316.808594 293.984375 319.664062 292.832031 322.402344 293.4375 C 323.785156 293.746094 325.644531 294.636719 326.65625 297.144531 C 327.652344 299.625 326.558594 302.960938 324.210938 304.582031 C 322.3125 305.894531 320.042969 305.765625 317.976562 304.234375 C 317.113281 303.589844 316.738281 302.496094 316.972656 301.308594 C 317.234375 299.96875 318.160156 298.886719 319.328125 298.542969 C 319.964844 298.359375 321.226562 298.242188 322.605469 299.539062 C 322.953125 299.867188 322.953125 300.398438 322.605469 300.726562 C 322.257812 301.050781 321.699219 301.050781 321.351562 300.726562 C 320.972656 300.371094 320.414062 299.980469 319.855469 300.144531 C 319.332031 300.296875 318.851562 300.914062 318.71875 301.613281 C 318.675781 301.828125 318.578125 302.546875 319.074219 302.917969 C 320.507812 303.984375 321.921875 304.089844 323.160156 303.230469 C 324.847656 302.066406 325.703125 299.5 324.996094 297.738281 C 324.410156 296.28125 323.398438 295.378906 321.996094 295.070312 C 320.207031 294.671875 317.902344 295.3125 316.394531 296.628906 C 315.339844 297.546875 313.664062 301.847656 315.0625 304.902344 C 316.011719 306.972656 318.21875 307.90625 321.621094 307.683594 C 324.425781 307.5 328.453125 304.292969 328.890625 301.140625 C 329.445312 297.113281 327.617188 294.101562 325.722656 292.625 C 323.121094 290.597656 320.625 290.824219 316.925781 291.960938 C 313.964844 292.871094 312.757812 296.351562 312.746094 296.386719 C 312.597656 296.824219 312.097656 297.070312 311.632812 296.929688 C 311.164062 296.789062 310.90625 296.320312 311.050781 295.878906 C 311.109375 295.703125 312.535156 291.546875 316.378906 290.371094 C 319.734375 289.339844 323.304688 288.566406 326.855469 291.332031 C 329.117188 293.09375 331.300781 296.652344 330.652344 301.359375 C 330.09375 305.386719 325.289062 309.125 321.742188 309.355469 C 321.371094 309.378906 321.019531 309.394531 320.675781 309.394531 "/>
<path style=" stroke:none;fill-rule:nonzero;fill:rgb(39.99939%,13.729858%,8.239746%);fill-opacity:1;" d="M 299.675781 306.058594 C 297.511719 309.785156 294.691406 310.394531 292.640625 310.210938 C 288.472656 309.84375 284.5625 305.878906 284.027344 303.875 C 283.492188 301.855469 283.796875 298.9375 285.675781 296.964844 C 286.625 295.96875 288.347656 294.859375 291.164062 295.226562 C 293.945312 295.59375 296.519531 298.105469 296.902344 300.824219 C 297.210938 303.023438 296 304.84375 293.582031 305.816406 C 292.570312 306.21875 291.371094 306.003906 290.378906 305.238281 C 289.265625 304.382812 288.699219 303.09375 288.945312 301.960938 C 289.074219 301.347656 289.578125 300.246094 291.445312 299.726562 C 291.917969 299.597656 292.410156 299.855469 292.546875 300.300781 C 292.683594 300.742188 292.414062 301.207031 291.941406 301.335938 C 291.433594 301.476562 290.800781 301.757812 290.6875 302.292969 C 290.574219 302.800781 290.921875 303.492188 291.503906 303.941406 C 291.679688 304.082031 292.304688 304.507812 292.886719 304.269531 C 294.566406 303.601562 295.34375 302.484375 295.140625 301.042969 C 294.867188 299.089844 292.894531 297.148438 290.917969 296.886719 C 289.277344 296.671875 287.960938 297.074219 286.996094 298.085938 C 285.765625 299.375 285.253906 301.589844 285.753906 303.46875 C 286.101562 304.78125 289.289062 308.238281 292.804688 308.546875 C 295.183594 308.757812 297.113281 307.382812 298.542969 304.457031 C 299.722656 302.050781 298.675781 297.175781 295.949219 295.296875 C 292.476562 292.90625 288.796875 292.964844 286.511719 293.824219 C 283.378906 295.003906 282.394531 297.179688 281.671875 300.789062 C 281.09375 303.675781 283.746094 306.34375 283.773438 306.371094 C 284.113281 306.707031 284.097656 307.234375 283.746094 307.550781 C 283.390625 307.871094 282.828125 307.863281 282.492188 307.53125 C 282.355469 307.398438 279.175781 304.21875 279.925781 300.472656 C 280.582031 297.207031 281.578125 293.878906 285.855469 292.269531 C 288.582031 291.246094 292.9375 291.148438 297 293.949219 C 300.480469 296.34375 301.640625 302.113281 300.15625 305.160156 C 300 305.476562 299.839844 305.777344 299.675781 306.058594 "/>
<path style=" stroke:none;fill-rule:nonzero;fill:rgb(89.019775%,25.099182%,47.44873%);fill-opacity:1;" d="M 158.578125 175.570312 C 158.578125 178.613281 150.265625 181.082031 140.015625 181.082031 C 129.765625 181.082031 121.457031 178.613281 121.457031 175.570312 C 121.457031 172.527344 129.765625 170.058594 140.015625 170.058594 C 150.265625 170.058594 158.578125 172.527344 158.578125 175.570312 "/>
<path style=" stroke:none;fill-rule:nonzero;fill:rgb(89.019775%,25.099182%,47.44873%);fill-opacity:1;" d="M 203.03125 181.082031 C 203.03125 184.125 194.722656 186.589844 184.46875 186.589844 C 174.21875 186.589844 165.910156 184.125 165.910156 181.082031 C 165.910156 178.035156 174.21875 175.570312 184.46875 175.570312 C 194.722656 175.570312 203.03125 178.035156 203.03125 181.082031 "/>
<path style=" stroke:none;fill-rule:nonzero;fill:rgb(89.019775%,25.099182%,47.44873%);fill-opacity:1;" d="M 258.25 177.269531 C 258.25 180.3125 249.9375 182.78125 239.6875 182.78125 C 229.433594 182.78125 221.125 180.3125 221.125 177.269531 C 221.125 174.226562 229.433594 171.757812 239.6875 171.757812 C 249.9375 171.757812 258.25 174.226562 258.25 177.269531 "/>
<path style=" stroke:none;fill-rule:nonzero;fill:rgb(63.529968%,85.099792%,32.548523%);fill-opacity:1;" d="M 172.445312 170.660156 C 172.386719 174.238281 172.347656 176.398438 172.347656 176.398438 C 172.347656 179.167969 176.550781 181.429688 180.242188 181.429688 L 190.066406 181.429688 C 193.757812 181.429688 196.78125 179.167969 196.78125 176.398438 C 196.78125 176.398438 196.671875 169.871094 196.523438 160.4375 C 192.445312 163.222656 187.90625 165.835938 183.492188 167.328125 C 179.558594 168.660156 175.753906 169.769531 172.445312 170.660156 "/>
<path style=" stroke:none;fill-rule:nonzero;fill:rgb(63.529968%,85.099792%,32.548523%);fill-opacity:1;" d="M 195.628906 94.347656 C 195.628906 93.871094 195.625 93.421875 195.625 93.03125 C 195.625 89.753906 195.695312 86.417969 195.789062 83.21875 C 191.90625 85.8125 187.640625 88.210938 183.492188 89.613281 C 179.988281 90.796875 176.574219 91.808594 173.53125 92.648438 C 173.53125 92.773438 173.53125 92.902344 173.53125 93.03125 C 173.53125 95.585938 173.488281 100.183594 173.421875 105.941406 C 175.636719 105.382812 177.941406 104.726562 180.253906 103.945312 C 185.699219 102.101562 191.183594 98.171875 195.628906 94.347656 "/>
<path style=" stroke:none;fill-rule:nonzero;fill:rgb(63.529968%,85.099792%,32.548523%);fill-opacity:1;" d="M 196.476562 68.484375 C 196.648438 65.71875 196.78125 64.003906 196.78125 64.003906 C 196.023438 60.464844 174.367188 61.949219 173.53125 64.003906 C 173.53125 64.003906 173.53125 71.460938 173.53125 80.800781 C 175.710938 80.253906 177.980469 79.605469 180.253906 78.835938 C 186.054688 76.871094 191.886719 72.546875 196.476562 68.484375 "/>
<path style=" stroke:none;fill-rule:nonzero;fill:rgb(63.529968%,85.099792%,32.548523%);fill-opacity:1;" d="M 183.492188 114.722656 C 179.882812 115.941406 176.375 116.980469 173.261719 117.832031 C 173.199219 122.464844 173.128906 127.386719 173.054688 132.332031 C 175.382812 131.757812 177.8125 131.074219 180.253906 130.246094 C 185.820312 128.363281 191.421875 124.304688 195.917969 120.390625 C 195.863281 116.117188 195.808594 112.039062 195.765625 108.34375 C 191.886719 110.933594 187.632812 113.320312 183.492188 114.722656 "/>
<path style=" stroke:none;fill-rule:nonzero;fill:rgb(63.529968%,85.099792%,32.548523%);fill-opacity:1;" d="M 172.871094 144.242188 C 172.789062 149.410156 172.710938 154.34375 172.640625 158.738281 C 175.09375 158.144531 177.667969 157.425781 180.253906 156.550781 C 185.980469 154.613281 191.738281 150.375 196.304688 146.359375 C 196.242188 142.480469 196.179688 138.449219 196.121094 134.40625 C 192.148438 137.085938 187.761719 139.578125 183.492188 141.027344 C 179.730469 142.296875 176.078125 143.371094 172.871094 144.242188 "/>
<path style=" stroke:none;fill-rule:nonzero;fill:rgb(76.858521%,13.328552%,32.159424%);fill-opacity:1;" d="M 195.789062 83.21875 C 195.96875 77.378906 196.257812 72.046875 196.476562 68.484375 C 191.886719 72.546875 186.054688 76.871094 180.253906 78.835938 C 177.980469 79.605469 175.710938 80.253906 173.53125 80.800781 C 173.53125 84.566406 173.53125 88.632812 173.53125 92.648438 C 176.574219 91.808594 179.988281 90.796875 183.492188 89.613281 C 187.640625 88.210938 191.90625 85.8125 195.789062 83.21875 "/>
<path style=" stroke:none;fill-rule:nonzero;fill:rgb(76.858521%,13.328552%,32.159424%);fill-opacity:1;" d="M 195.765625 108.34375 C 195.691406 102.402344 195.640625 97.464844 195.628906 94.347656 C 191.183594 98.171875 185.699219 102.101562 180.253906 103.945312 C 177.941406 104.726562 175.636719 105.382812 173.421875 105.941406 C 173.375 109.519531 173.324219 113.554688 173.261719 117.832031 C 176.375 116.980469 179.882812 115.941406 183.492188 114.722656 C 187.632812 113.320312 191.886719 110.933594 195.765625 108.34375 "/>
<path style=" stroke:none;fill-rule:nonzero;fill:rgb(76.858521%,13.328552%,32.159424%);fill-opacity:1;" d="M 173.054688 132.332031 C 172.992188 136.335938 172.929688 140.347656 172.871094 144.242188 C 176.078125 143.371094 179.730469 142.296875 183.492188 141.027344 C 187.761719 139.578125 192.148438 137.085938 196.121094 134.40625 C 196.050781 129.667969 195.984375 124.925781 195.917969 120.390625 C 191.421875 124.304688 185.820312 128.363281 180.253906 130.246094 C 177.8125 131.074219 175.382812 131.757812 173.054688 132.332031 "/>
<path style=" stroke:none;fill-rule:nonzero;fill:rgb(76.858521%,13.328552%,32.159424%);fill-opacity:1;" d="M 172.640625 158.738281 C 172.5625 163.5 172.496094 167.605469 172.445312 170.660156 C 175.753906 169.769531 179.558594 168.660156 183.492188 167.328125 C 187.90625 165.835938 192.445312 163.222656 196.523438 160.4375 C 196.453125 156.21875 196.378906 151.425781 196.304688 146.359375 C 191.738281 150.375 185.980469 154.613281 180.253906 156.550781 C 177.667969 157.425781 175.09375 158.144531 172.640625 158.738281 "/>
<path style=" stroke:none;fill-rule:nonzero;fill:rgb(54.119873%,74.119568%,20.388794%);fill-opacity:1;" d="M 196.722656 63.269531 C 196.722656 64.816406 191.53125 66.074219 185.128906 66.074219 C 178.722656 66.074219 173.53125 64.816406 173.53125 63.269531 C 173.53125 61.722656 178.722656 60.464844 185.128906 60.464844 C 191.53125 60.464844 196.722656 61.722656 196.722656 63.269531 "/>
<g clip-path="url(#clip1)" clip-rule="nonzero">
<path style=" stroke:none;fill-rule:nonzero;fill:rgb(96.859741%,56.469727%,11.759949%);fill-opacity:1;" d="M 193.820312 38.613281 C 197.730469 47.824219 185.140625 56.472656 185.140625 56.472656 C 185.140625 56.472656 174.554688 54.429688 174.554688 38.613281 C 174.554688 21.316406 190.4375 14.40625 190.4375 14.40625 C 190.4375 14.40625 186.382812 21.101562 193.820312 38.613281 "/>
</g>
<path style=" stroke:none;fill-rule:nonzero;fill:rgb(98.81897%,79.60968%,9.408569%);fill-opacity:1;" d="M 189.375 42.308594 C 192.46875 50.664062 184.945312 56.472656 184.945312 56.472656 C 184.945312 56.472656 177.96875 55.128906 177.96875 44.703125 C 177.96875 33.304688 185.757812 29.109375 185.757812 29.109375 C 185.757812 29.109375 185.136719 30.859375 189.375 42.308594 "/>
<path style=" stroke:none;fill-rule:nonzero;fill:rgb(47.839355%,29.40979%,66.668701%);fill-opacity:1;" d="M 229.183594 169.484375 C 229.242188 172.558594 229.28125 174.417969 229.28125 174.417969 C 229.367188 176.792969 233.050781 178.628906 236.222656 178.539062 L 244.664062 178.296875 C 247.832031 178.203125 250.355469 176.183594 250.269531 173.808594 C 250.269531 173.808594 249.96875 168.199219 249.542969 160.097656 C 246.132812 162.59375 242.3125 164.953125 238.566406 166.34375 C 235.234375 167.585938 232 168.636719 229.183594 169.484375 "/>
<path style=" stroke:none;fill-rule:nonzero;fill:rgb(47.839355%,29.40979%,66.668701%);fill-opacity:1;" d="M 246.6875 103.34375 C 246.671875 102.933594 246.65625 102.550781 246.644531 102.214844 C 246.542969 99.402344 246.492188 96.53125 246.472656 93.777344 C 243.21875 96.105469 239.632812 98.269531 236.105469 99.578125 C 233.140625 100.6875 230.238281 101.640625 227.652344 102.4375 C 227.65625 102.546875 227.65625 102.660156 227.664062 102.769531 C 227.746094 104.960938 227.851562 108.910156 227.972656 113.855469 C 229.863281 113.324219 231.820312 112.699219 233.785156 111.972656 C 238.402344 110.253906 242.988281 106.742188 246.6875 103.34375 "/>
<path style=" stroke:none;fill-rule:nonzero;fill:rgb(47.839355%,29.40979%,66.668701%);fill-opacity:1;" d="M 246.597656 81.105469 C 246.660156 78.726562 246.714844 77.25 246.714844 77.25 C 245.953125 74.226562 227.398438 76.039062 226.746094 77.832031 C 226.746094 77.832031 226.980469 84.234375 227.273438 92.261719 C 229.132812 91.730469 231.058594 91.117188 232.992188 90.402344 C 237.910156 88.570312 242.785156 84.707031 246.597656 81.105469 "/>
<path style=" stroke:none;fill-rule:nonzero;fill:rgb(47.839355%,29.40979%,66.668701%);fill-opacity:1;" d="M 236.902344 121.152344 C 233.84375 122.289062 230.863281 123.269531 228.21875 124.078125 C 228.308594 128.0625 228.402344 132.289062 228.496094 136.539062 C 230.476562 135.988281 232.542969 135.339844 234.613281 134.566406 C 239.335938 132.8125 244.019531 129.183594 247.761719 125.714844 C 247.574219 122.042969 247.402344 118.535156 247.246094 115.367188 C 244 117.6875 240.414062 119.84375 236.902344 121.152344 "/>
<path style=" stroke:none;fill-rule:nonzero;fill:rgb(47.839355%,29.40979%,66.668701%);fill-opacity:1;" d="M 228.714844 146.777344 C 228.808594 151.214844 228.894531 155.457031 228.972656 159.234375 C 231.0625 158.664062 233.25 157.984375 235.445312 157.167969 C 240.304688 155.359375 245.121094 151.570312 248.910156 148.011719 C 248.734375 144.679688 248.558594 141.21875 248.378906 137.746094 C 245.050781 140.148438 241.355469 142.398438 237.734375 143.746094 C 234.542969 144.9375 231.445312 145.945312 228.714844 146.777344 "/>
<path style=" stroke:none;fill-rule:nonzero;fill:rgb(94.898987%,31.369019%,57.649231%);fill-opacity:1;" d="M 246.472656 93.777344 C 246.441406 88.757812 246.523438 84.171875 246.597656 81.105469 C 242.785156 84.707031 237.910156 88.570312 232.992188 90.402344 C 231.058594 91.117188 229.132812 91.730469 227.273438 92.261719 C 227.394531 95.492188 227.523438 98.988281 227.652344 102.4375 C 230.238281 101.640625 233.140625 100.6875 236.105469 99.578125 C 239.632812 98.269531 243.21875 96.105469 246.472656 93.777344 "/>
<path style=" stroke:none;fill-rule:nonzero;fill:rgb(94.898987%,31.369019%,57.649231%);fill-opacity:1;" d="M 247.246094 115.367188 C 246.996094 110.261719 246.796875 106.023438 246.6875 103.34375 C 242.988281 106.742188 238.402344 110.253906 233.785156 111.972656 C 231.820312 112.699219 229.863281 113.324219 227.972656 113.855469 C 228.050781 116.933594 228.132812 120.402344 228.21875 124.078125 C 230.863281 123.269531 233.84375 122.289062 236.902344 121.152344 C 240.414062 119.84375 244 117.6875 247.246094 115.367188 "/>
<path style=" stroke:none;fill-rule:nonzero;fill:rgb(94.898987%,31.369019%,57.649231%);fill-opacity:1;" d="M 228.496094 136.539062 C 228.570312 139.984375 228.644531 143.429688 228.714844 146.777344 C 231.445312 145.945312 234.542969 144.9375 237.734375 143.746094 C 241.355469 142.398438 245.050781 140.148438 248.378906 137.746094 C 248.167969 133.675781 247.960938 129.605469 247.761719 125.714844 C 244.019531 129.183594 239.335938 132.8125 234.613281 134.566406 C 232.542969 135.339844 230.476562 135.988281 228.496094 136.539062 "/>
<path style=" stroke:none;fill-rule:nonzero;fill:rgb(94.898987%,31.369019%,57.649231%);fill-opacity:1;" d="M 228.972656 159.234375 C 229.054688 163.328125 229.128906 166.855469 229.183594 169.484375 C 232 168.636719 235.234375 167.585938 238.566406 166.34375 C 242.3125 164.953125 246.132812 162.59375 249.542969 160.097656 C 249.355469 156.476562 249.136719 152.359375 248.910156 148.011719 C 245.121094 151.570312 240.304688 155.359375 235.445312 157.167969 C 233.25 157.984375 231.0625 158.664062 228.972656 159.234375 "/>
<path style=" stroke:none;fill-rule:nonzero;fill:rgb(54.119873%,74.119568%,20.388794%);fill-opacity:1;" d="M 246.644531 76.621094 C 246.691406 77.949219 242.269531 79.15625 236.769531 79.316406 C 231.269531 79.476562 226.769531 78.527344 226.71875 77.199219 C 226.671875 75.867188 231.09375 74.660156 236.59375 74.5 C 242.09375 74.339844 246.597656 75.289062 246.644531 76.621094 "/>
<path style=" stroke:none;fill-rule:nonzero;fill:rgb(96.859741%,56.469727%,11.759949%);fill-opacity:1;" d="M 243.585938 54.046875 C 247.238281 61.859375 236.695312 69.605469 236.695312 69.605469 C 236.695312 69.605469 227.535156 68.113281 227.035156 54.527344 C 226.488281 39.667969 239.914062 33.335938 239.914062 33.335938 C 239.914062 33.335938 236.644531 39.191406 243.585938 54.046875 "/>
<path style=" stroke:none;fill-rule:nonzero;fill:rgb(98.81897%,79.60968%,9.408569%);fill-opacity:1;" d="M 239.882812 57.332031 C 242.804688 64.433594 236.527344 69.613281 236.527344 69.613281 C 236.527344 69.613281 230.488281 68.628906 230.160156 59.671875 C 229.796875 49.878906 236.363281 46.082031 236.363281 46.082031 C 236.363281 46.082031 235.882812 47.601562 239.882812 57.332031 "/>
<path style=" stroke:none;fill-rule:nonzero;fill:rgb(42.349243%,69.799805%,86.669922%);fill-opacity:1;" d="M 127.871094 166.695312 C 127.910156 169.695312 127.933594 171.507812 127.933594 171.507812 C 128 173.824219 131.578125 175.640625 134.667969 175.566406 L 142.902344 175.378906 C 145.992188 175.304688 148.46875 173.351562 148.402344 171.03125 C 148.402344 171.03125 148.148438 165.566406 147.792969 157.664062 C 144.449219 160.078125 140.707031 162.351562 137.042969 163.691406 C 133.785156 164.882812 130.621094 165.886719 127.871094 166.695312 "/>
<path style=" stroke:none;fill-rule:nonzero;fill:rgb(42.349243%,69.799805%,86.669922%);fill-opacity:1;" d="M 145.421875 102.308594 C 145.410156 101.910156 145.398438 101.535156 145.386719 101.210938 C 145.3125 98.460938 145.28125 95.664062 145.285156 92.980469 C 142.09375 95.230469 138.578125 97.320312 135.136719 98.578125 C 132.230469 99.640625 129.398438 100.554688 126.867188 101.316406 C 126.871094 101.421875 126.875 101.53125 126.878906 101.636719 C 126.941406 103.78125 127.015625 107.628906 127.101562 112.453125 C 128.945312 111.941406 130.859375 111.347656 132.777344 110.648438 C 137.292969 108.996094 141.792969 105.605469 145.421875 102.308594 "/>
<path style=" stroke:none;fill-rule:nonzero;fill:rgb(42.349243%,69.799805%,86.669922%);fill-opacity:1;" d="M 145.5 80.628906 C 145.578125 78.304688 145.644531 76.867188 145.644531 76.867188 C 144.921875 73.917969 126.8125 75.578125 126.167969 77.316406 C 126.167969 77.316406 126.351562 83.5625 126.578125 91.390625 C 128.394531 90.890625 130.273438 90.296875 132.164062 89.609375 C 136.972656 87.855469 141.757812 84.113281 145.5 80.628906 "/>
<path style=" stroke:none;fill-rule:nonzero;fill:rgb(42.349243%,69.799805%,86.669922%);fill-opacity:1;" d="M 135.753906 119.613281 C 132.761719 120.707031 129.851562 121.644531 127.261719 122.417969 C 127.324219 126.304688 127.382812 130.429688 127.441406 134.574219 C 129.378906 134.042969 131.394531 133.425781 133.421875 132.683594 C 138.042969 131 142.636719 127.488281 146.308594 124.125 C 146.152344 120.546875 146.007812 117.128906 145.882812 114.035156 C 142.699219 116.277344 139.1875 118.363281 135.753906 119.613281 "/>
<path style=" stroke:none;fill-rule:nonzero;fill:rgb(42.349243%,69.799805%,86.669922%);fill-opacity:1;" d="M 127.582031 144.554688 C 127.640625 148.882812 127.695312 153.019531 127.742188 156.703125 C 129.78125 156.15625 131.921875 155.507812 134.070312 154.722656 C 138.820312 152.988281 143.542969 149.324219 147.265625 145.875 C 147.117188 142.625 146.96875 139.25 146.820312 135.863281 C 143.558594 138.183594 139.941406 140.359375 136.398438 141.652344 C 133.277344 142.792969 130.25 143.761719 127.582031 144.554688 "/>
<path style=" stroke:none;fill-rule:nonzero;fill:rgb(76.858521%,13.328552%,32.159424%);fill-opacity:1;" d="M 145.285156 92.980469 C 145.292969 88.085938 145.40625 83.613281 145.5 80.628906 C 141.757812 84.113281 136.972656 87.855469 132.164062 89.609375 C 130.273438 90.296875 128.394531 90.890625 126.578125 91.390625 C 126.671875 94.542969 126.769531 97.949219 126.867188 101.316406 C 129.398438 100.554688 132.230469 99.640625 135.136719 98.578125 C 138.578125 97.320312 142.09375 95.230469 145.285156 92.980469 "/>
<path style=" stroke:none;fill-rule:nonzero;fill:rgb(76.858521%,13.328552%,32.159424%);fill-opacity:1;" d="M 145.882812 114.035156 C 145.671875 109.054688 145.511719 104.921875 145.421875 102.308594 C 141.792969 105.605469 137.292969 108.996094 132.777344 110.648438 C 130.859375 111.347656 128.945312 111.941406 127.101562 112.453125 C 127.152344 115.453125 127.207031 118.832031 127.261719 122.417969 C 129.851562 121.644531 132.761719 120.707031 135.753906 119.613281 C 139.1875 118.363281 142.699219 116.277344 145.882812 114.035156 "/>
<path style=" stroke:none;fill-rule:nonzero;fill:rgb(76.858521%,13.328552%,32.159424%);fill-opacity:1;" d="M 127.441406 134.574219 C 127.488281 137.929688 127.535156 141.289062 127.582031 144.554688 C 130.25 143.761719 133.277344 142.792969 136.398438 141.652344 C 139.941406 140.359375 143.558594 138.183594 146.820312 135.863281 C 146.644531 131.894531 146.472656 127.921875 146.308594 124.125 C 142.636719 127.488281 138.042969 131 133.421875 132.683594 C 131.394531 133.425781 129.378906 134.042969 127.441406 134.574219 "/>
<path style=" stroke:none;fill-rule:nonzero;fill:rgb(76.858521%,13.328552%,32.159424%);fill-opacity:1;" d="M 127.742188 156.703125 C 127.792969 160.695312 127.839844 164.132812 127.871094 166.695312 C 130.621094 165.886719 133.785156 164.882812 137.042969 163.691406 C 140.707031 162.351562 144.449219 160.078125 147.792969 157.664062 C 147.632812 154.132812 147.453125 150.117188 147.265625 145.875 C 143.542969 149.324219 138.820312 152.988281 134.070312 154.722656 C 131.921875 155.507812 129.78125 156.15625 127.742188 156.703125 "/>
<path style=" stroke:none;fill-rule:nonzero;fill:rgb(28.62854%,58.428955%,77.648926%);fill-opacity:1;" d="M 145.578125 76.253906 C 145.613281 77.550781 141.296875 78.703125 135.929688 78.824219 C 130.566406 78.949219 126.1875 78 126.148438 76.699219 C 126.109375 75.402344 130.429688 74.253906 135.796875 74.128906 C 141.15625 74.003906 145.539062 74.953125 145.578125 76.253906 "/>
<path style=" stroke:none;fill-rule:nonzero;fill:rgb(96.859741%,56.469727%,11.759949%);fill-opacity:1;" d="M 142.707031 54.546875 C 146.210938 62.191406 135.871094 69.679688 135.871094 69.679688 C 135.871094 69.679688 126.957031 68.171875 126.566406 54.921875 C 126.140625 40.433594 139.28125 34.332031 139.28125 34.332031 C 139.28125 34.332031 136.046875 40.023438 142.707031 54.546875 "/>
<path style=" stroke:none;fill-rule:nonzero;fill:rgb(98.81897%,79.60968%,9.408569%);fill-opacity:1;" d="M 139.074219 57.730469 C 141.871094 64.667969 135.710938 69.683594 135.710938 69.683594 C 135.710938 69.683594 129.832031 68.691406 129.574219 59.957031 C 129.296875 50.402344 135.722656 46.742188 135.722656 46.742188 C 135.722656 46.742188 135.242188 48.222656 139.074219 57.730469 "/>
<path style=" stroke:none;fill-rule:nonzero;fill:rgb(81.959534%,70.199585%,14.118958%);fill-opacity:1;" d="M 41.878906 260.746094 C 41.878906 262.144531 40.71875 263.273438 39.285156 263.273438 C 37.851562 263.273438 36.691406 262.144531 36.691406 260.746094 C 36.691406 259.351562 37.851562 258.222656 39.285156 258.222656 C 40.71875 258.222656 41.878906 259.351562 41.878906 260.746094 "/>
<path style=" stroke:none;fill-rule:nonzero;fill:rgb(81.959534%,70.199585%,14.118958%);fill-opacity:1;" d="M 42.015625 246.628906 C 42.015625 248.023438 40.855469 249.152344 39.421875 249.152344 C 37.988281 249.152344 36.828125 248.023438 36.828125 246.628906 C 36.828125 245.230469 37.988281 244.101562 39.421875 244.101562 C 40.855469 244.101562 42.015625 245.230469 42.015625 246.628906 "/>
<path style=" stroke:none;fill-rule:nonzero;fill:rgb(81.959534%,70.199585%,14.118958%);fill-opacity:1;" d="M 62.101562 263.273438 C 62.101562 264.667969 60.9375 265.796875 59.507812 265.796875 C 58.074219 265.796875 56.910156 264.667969 56.910156 263.273438 C 56.910156 261.878906 58.074219 260.746094 59.507812 260.746094 C 60.9375 260.746094 62.101562 261.878906 62.101562 263.273438 "/>
<path style=" stroke:none;fill-rule:nonzero;fill:rgb(81.959534%,70.199585%,14.118958%);fill-opacity:1;" d="M 79.097656 254.3125 C 79.097656 255.707031 77.9375 256.835938 76.5 256.835938 C 75.070312 256.835938 73.90625 255.707031 73.90625 254.3125 C 73.90625 252.917969 75.070312 251.789062 76.5 251.789062 C 77.9375 251.789062 79.097656 252.917969 79.097656 254.3125 "/>
<path style=" stroke:none;fill-rule:nonzero;fill:rgb(81.959534%,70.199585%,14.118958%);fill-opacity:1;" d="M 96.269531 263.273438 C 96.269531 264.667969 95.109375 265.796875 93.675781 265.796875 C 92.242188 265.796875 91.082031 264.667969 91.082031 263.273438 C 91.082031 261.878906 92.242188 260.746094 93.675781 260.746094 C 95.109375 260.746094 96.269531 261.878906 96.269531 263.273438 "/>
<path style=" stroke:none;fill-rule:nonzero;fill:rgb(81.959534%,70.199585%,14.118958%);fill-opacity:1;" d="M 114.800781 256.835938 C 114.800781 258.230469 113.640625 259.363281 112.207031 259.363281 C 110.773438 259.363281 109.613281 258.230469 109.613281 256.835938 C 109.613281 255.441406 110.773438 254.3125 112.207031 254.3125 C 113.640625 254.3125 114.800781 255.441406 114.800781 256.835938 "/>
<path style=" stroke:none;fill-rule:nonzero;fill:rgb(81.959534%,70.199585%,14.118958%);fill-opacity:1;" d="M 123.867188 265.796875 C 123.867188 267.191406 122.703125 268.324219 121.269531 268.324219 C 119.835938 268.324219 118.675781 267.191406 118.675781 265.796875 C 118.675781 264.402344 119.835938 263.273438 121.269531 263.273438 C 122.703125 263.273438 123.867188 264.402344 123.867188 265.796875 "/>
<path style=" stroke:none;fill-rule:nonzero;fill:rgb(81.959534%,70.199585%,14.118958%);fill-opacity:1;" d="M 149.953125 261.886719 C 149.953125 263.28125 148.792969 264.414062 147.355469 264.414062 C 145.921875 264.414062 144.761719 263.28125 144.761719 261.886719 C 144.761719 260.492188 145.921875 259.363281 147.355469 259.363281 C 148.792969 259.363281 149.953125 260.492188 149.953125 261.886719 "/>
<path style=" stroke:none;fill-rule:nonzero;fill:rgb(81.959534%,70.199585%,14.118958%);fill-opacity:1;" d="M 163.777344 266.9375 C 163.777344 268.328125 162.617188 269.460938 161.183594 269.460938 C 159.75 269.460938 158.589844 268.328125 158.589844 266.9375 C 158.589844 265.542969 159.75 264.414062 161.183594 264.414062 C 162.617188 264.414062 163.777344 265.542969 163.777344 266.9375 "/>
<path style=" stroke:none;fill-rule:nonzero;fill:rgb(81.959534%,70.199585%,14.118958%);fill-opacity:1;" d="M 168.96875 246.628906 C 168.96875 248.023438 167.808594 249.152344 166.375 249.152344 C 164.941406 249.152344 163.777344 248.023438 163.777344 246.628906 C 163.777344 245.230469 164.941406 244.101562 166.375 244.101562 C 167.808594 244.101562 168.96875 245.230469 168.96875 246.628906 "/>
<path style=" stroke:none;fill-rule:nonzero;fill:rgb(81.959534%,70.199585%,14.118958%);fill-opacity:1;" d="M 182.628906 266.9375 C 182.628906 268.328125 181.464844 269.460938 180.03125 269.460938 C 178.597656 269.460938 177.4375 268.328125 177.4375 266.9375 C 177.4375 265.542969 178.597656 264.414062 180.03125 264.414062 C 181.464844 264.414062 182.628906 265.542969 182.628906 266.9375 "/>
<path style=" stroke:none;fill-rule:nonzero;fill:rgb(81.959534%,70.199585%,14.118958%);fill-opacity:1;" d="M 140.015625 271.058594 C 140.015625 272.453125 138.855469 273.582031 137.421875 273.582031 C 135.988281 273.582031 134.828125 272.453125 134.828125 271.058594 C 134.828125 269.664062 135.988281 268.53125 137.421875 268.53125 C 138.855469 268.53125 140.015625 269.664062 140.015625 271.058594 "/>
<path style=" stroke:none;fill-rule:nonzero;fill:rgb(81.959534%,70.199585%,14.118958%);fill-opacity:1;" d="M 195.070312 251.675781 C 195.070312 253.070312 193.910156 254.199219 192.476562 254.199219 C 191.042969 254.199219 189.882812 253.070312 189.882812 251.675781 C 189.882812 250.28125 191.042969 249.152344 192.476562 249.152344 C 193.910156 249.152344 195.070312 250.28125 195.070312 251.675781 "/>
<path style=" stroke:none;fill-rule:nonzero;fill:rgb(81.959534%,70.199585%,14.118958%);fill-opacity:1;" d="M 206.101562 264.320312 C 206.101562 265.71875 204.9375 266.847656 203.507812 266.847656 C 202.074219 266.847656 200.914062 265.71875 200.914062 264.320312 C 200.914062 262.925781 202.074219 261.796875 203.507812 261.796875 C 204.9375 261.796875 206.101562 262.925781 206.101562 264.320312 "/>
<path style=" stroke:none;fill-rule:nonzero;fill:rgb(81.959534%,70.199585%,14.118958%);fill-opacity:1;" d="M 225.9375 269.929688 C 225.9375 271.324219 224.773438 272.457031 223.339844 272.457031 C 221.910156 272.457031 220.746094 271.324219 220.746094 269.929688 C 220.746094 268.535156 221.910156 267.40625 223.339844 267.40625 C 224.773438 267.40625 225.9375 268.535156 225.9375 269.929688 "/>
<path style=" stroke:none;fill-rule:nonzero;fill:rgb(81.959534%,70.199585%,14.118958%);fill-opacity:1;" d="M 240.574219 269.460938 C 240.574219 270.859375 239.414062 271.988281 237.980469 271.988281 C 236.546875 271.988281 235.386719 270.859375 235.386719 269.460938 C 235.386719 268.066406 236.546875 266.9375 237.980469 266.9375 C 239.414062 266.9375 240.574219 268.066406 240.574219 269.460938 "/>
<path style=" stroke:none;fill-rule:nonzero;fill:rgb(81.959534%,70.199585%,14.118958%);fill-opacity:1;" d="M 258.285156 249.152344 C 258.285156 250.542969 257.125 251.675781 255.691406 251.675781 C 254.257812 251.675781 253.09375 250.542969 253.09375 249.152344 C 253.09375 247.757812 254.257812 246.628906 255.691406 246.628906 C 257.125 246.628906 258.285156 247.757812 258.285156 249.152344 "/>
<path style=" stroke:none;fill-rule:nonzero;fill:rgb(81.959534%,70.199585%,14.118958%);fill-opacity:1;" d="M 255.691406 267.675781 C 255.691406 269.070312 254.53125 270.199219 253.09375 270.199219 C 251.660156 270.199219 250.5 269.070312 250.5 267.675781 C 250.5 266.277344 251.660156 265.148438 253.09375 265.148438 C 254.53125 265.148438 255.691406 266.277344 255.691406 267.675781 "/>
<path style=" stroke:none;fill-rule:nonzero;fill:rgb(81.959534%,70.199585%,14.118958%);fill-opacity:1;" d="M 269.332031 261.886719 C 269.332031 263.28125 268.171875 264.414062 266.734375 264.414062 C 265.300781 264.414062 264.140625 263.28125 264.140625 261.886719 C 264.140625 260.492188 265.300781 259.363281 266.734375 259.363281 C 268.171875 259.363281 269.332031 260.492188 269.332031 261.886719 "/>
<path style=" stroke:none;fill-rule:nonzero;fill:rgb(81.959534%,70.199585%,14.118958%);fill-opacity:1;" d="M 283.953125 264.054688 C 283.953125 265.449219 282.792969 266.578125 281.359375 266.578125 C 279.925781 266.578125 278.761719 265.449219 278.761719 264.054688 C 278.761719 262.660156 279.925781 261.527344 281.359375 261.527344 C 282.792969 261.527344 283.953125 262.660156 283.953125 264.054688 "/>
<path style=" stroke:none;fill-rule:nonzero;fill:rgb(81.959534%,70.199585%,14.118958%);fill-opacity:1;" d="M 318.90625 235.746094 C 318.90625 237.140625 317.746094 238.269531 316.3125 238.269531 C 314.878906 238.269531 313.71875 237.140625 313.71875 235.746094 C 313.71875 234.351562 314.878906 233.21875 316.3125 233.21875 C 317.746094 233.21875 318.90625 234.351562 318.90625 235.746094 "/>
<path style=" stroke:none;fill-rule:nonzero;fill:rgb(81.959534%,70.199585%,14.118958%);fill-opacity:1;" d="M 299.28125 263.273438 C 299.28125 264.667969 298.117188 265.796875 296.6875 265.796875 C 295.25 265.796875 294.089844 264.667969 294.089844 263.273438 C 294.089844 261.878906 295.25 260.746094 296.6875 260.746094 C 298.117188 260.746094 299.28125 261.878906 299.28125 263.273438 "/>
<path style=" stroke:none;fill-rule:nonzero;fill:rgb(81.959534%,70.199585%,14.118958%);fill-opacity:1;" d="M 316.3125 261.886719 C 316.3125 263.28125 315.152344 264.414062 313.71875 264.414062 C 312.285156 264.414062 311.125 263.28125 311.125 261.886719 C 311.125 260.492188 312.285156 259.363281 313.71875 259.363281 C 315.152344 259.363281 316.3125 260.492188 316.3125 261.886719 "/>
<path style=" stroke:none;fill-rule:nonzero;fill:rgb(81.959534%,70.199585%,14.118958%);fill-opacity:1;" d="M 325.179688 252.886719 C 325.179688 254.28125 324.015625 255.414062 322.582031 255.414062 C 321.152344 255.414062 319.988281 254.28125 319.988281 252.886719 C 319.988281 251.492188 321.152344 250.363281 322.582031 250.363281 C 324.015625 250.363281 325.179688 251.492188 325.179688 252.886719 "/>
<path style=" stroke:none;fill-rule:nonzero;fill:rgb(81.959534%,70.199585%,14.118958%);fill-opacity:1;" d="M 333.910156 264.414062 C 333.910156 265.808594 332.75 266.9375 331.316406 266.9375 C 329.886719 266.9375 328.722656 265.808594 328.722656 264.414062 C 328.722656 263.019531 329.886719 261.886719 331.316406 261.886719 C 332.75 261.886719 333.910156 263.019531 333.910156 264.414062 "/>
<path style=" stroke:none;fill-rule:nonzero;fill:rgb(95.689392%,42.749023%,64.709473%);fill-opacity:1;" d="M 54.457031 215.703125 C 54.457031 215.703125 49.394531 239.78125 62.757812 243.9375 C 62.757812 243.9375 52.148438 239.78125 57.957031 215.5625 C 59.671875 208.410156 54.203125 209.511719 54.457031 215.703125 "/>
<path style=" stroke:none;fill-rule:nonzero;fill:rgb(95.689392%,42.749023%,64.709473%);fill-opacity:1;" d="M 27.996094 200.398438 C 27.996094 200.398438 20.660156 218.816406 28.65625 229.574219 C 28.65625 229.574219 22.996094 218.953125 31.476562 200.796875 C 34.585938 194.136719 28.703125 194.238281 27.996094 200.398438 "/>
<path style=" stroke:none;fill-rule:nonzero;fill:rgb(95.689392%,42.749023%,64.709473%);fill-opacity:1;" d="M 130.378906 243.0625 C 125.949219 236.949219 121.269531 229.011719 121.269531 229.011719 C 121.269531 229.011719 127.027344 247.652344 136.867188 250.550781 C 136.867188 250.550781 133.527344 247.410156 130.378906 243.0625 "/>
<path style=" stroke:none;fill-rule:nonzero;fill:rgb(95.689392%,42.749023%,64.709473%);fill-opacity:1;" d="M 214.25 238.929688 C 214.25 238.929688 221.261719 260.746094 234.625 259.488281 C 224.359375 256.78125 220.082031 246.832031 216.253906 237.363281 C 214.011719 231.820312 212.300781 229.65625 214.25 238.929688 "/>
<path style=" stroke:none;fill-rule:nonzero;fill:rgb(95.689392%,42.749023%,64.709473%);fill-opacity:1;" d="M 264.617188 227.632812 C 264.617188 227.632812 270.480469 250.363281 288.90625 250.550781 C 278.640625 247.847656 270.453125 235.535156 266.621094 226.066406 C 264.378906 220.523438 262.667969 218.359375 264.617188 227.632812 "/>
<path style=" stroke:none;fill-rule:nonzero;fill:rgb(89.019775%,25.099182%,47.44873%);fill-opacity:1;" d="M 84.558594 183.390625 C 84.648438 184.480469 82.777344 185.523438 80.371094 185.726562 C 77.96875 185.929688 75.945312 185.210938 75.851562 184.125 C 75.761719 183.039062 77.636719 181.992188 80.039062 181.789062 C 82.445312 181.585938 84.46875 182.300781 84.558594 183.390625 "/>
<path style=" stroke:none;fill-rule:nonzero;fill:rgb(56.858826%,56.079102%,56.079102%);fill-opacity:1;" d="M 78.820312 183.527344 L 53.792969 72.117188 L 56.289062 71.558594 L 81.316406 182.96875 L 78.820312 183.527344 "/>
<path style=" stroke:none;fill-rule:nonzero;fill:rgb(96.859741%,59.21936%,10.5896%);fill-opacity:1;" d="M 39.40625 90.824219 C 39.351562 89.558594 39.296875 88.214844 39.242188 86.867188 C 39.066406 82.488281 38.902344 78.105469 38.707031 73.722656 C 38.699219 73.53125 38.5 73.28125 38.320312 73.164062 C 34.378906 70.652344 30.429688 68.15625 26.480469 65.65625 C 25.796875 65.222656 25.121094 64.785156 24.429688 64.363281 C 23.578125 63.839844 23.054688 63.113281 23.152344 62.082031 C 23.246094 61.035156 23.882812 60.382812 24.847656 60.027344 C 27.679688 58.984375 30.503906 57.929688 33.332031 56.882812 C 35.65625 56.027344 37.988281 55.179688 40.300781 54.292969 C 40.53125 54.203125 40.769531 53.898438 40.835938 53.648438 C 41.949219 49.363281 43.03125 45.074219 44.121094 40.785156 C 44.375 39.777344 44.65625 38.777344 44.890625 37.761719 C 45.132812 36.726562 45.773438 36.128906 46.789062 35.910156 C 47.785156 35.699219 48.558594 36.0625 49.167969 36.835938 C 51.382812 39.648438 53.597656 42.460938 55.808594 45.273438 C 56.984375 46.769531 58.167969 48.261719 59.332031 49.769531 C 59.546875 50.046875 59.769531 50.128906 60.113281 50.105469 C 65.59375 49.738281 71.070312 49.386719 76.554688 49.023438 C 77.539062 48.957031 78.359375 49.277344 78.859375 50.140625 C 79.367188 51.015625 79.273438 51.902344 78.707031 52.75 C 75.691406 57.261719 72.691406 61.78125 69.664062 66.289062 C 69.378906 66.714844 69.316406 67.042969 69.515625 67.539062 C 71.511719 72.484375 73.476562 77.441406 75.453125 82.390625 C 75.695312 82.988281 75.886719 83.582031 75.726562 84.238281 C 75.386719 85.601562 74.105469 86.296875 72.667969 85.886719 C 69.488281 84.988281 66.308594 84.078125 63.128906 83.179688 C 61.058594 82.59375 58.984375 82.023438 56.914062 81.425781 C 56.527344 81.3125 56.253906 81.367188 55.929688 81.636719 C 51.769531 85.113281 47.59375 88.566406 43.433594 92.042969 C 42.59375 92.738281 41.710938 93.039062 40.675781 92.546875 C 39.980469 92.214844 39.613281 91.625 39.40625 90.824219 "/>
<path style=" stroke:none;fill-rule:nonzero;fill:rgb(95.289612%,80.778503%,9.799194%);fill-opacity:1;" d="M 38.503906 88.722656 C 38.449219 87.457031 38.390625 86.113281 38.339844 84.765625 C 38.164062 80.386719 38 76.003906 37.804688 71.621094 C 37.796875 71.429688 37.597656 71.179688 37.417969 71.066406 C 33.476562 68.550781 29.523438 66.054688 25.578125 63.550781 C 24.894531 63.121094 24.214844 62.683594 23.527344 62.261719 C 22.675781 61.738281 22.152344 61.011719 22.246094 59.980469 C 22.34375 58.933594 22.980469 58.28125 23.945312 57.925781 C 26.777344 56.882812 29.601562 55.832031 32.429688 54.78125 C 34.753906 53.921875 37.085938 53.078125 39.398438 52.191406 C 39.628906 52.101562 39.867188 51.796875 39.933594 51.546875 C 41.042969 47.265625 42.125 42.972656 43.21875 38.683594 C 43.472656 37.675781 43.753906 36.675781 43.988281 35.664062 C 44.230469 34.625 44.871094 34.027344 45.886719 33.808594 C 46.878906 33.597656 47.65625 33.957031 48.265625 34.738281 C 50.480469 37.546875 52.691406 40.359375 54.90625 43.171875 C 56.082031 44.667969 57.265625 46.15625 58.425781 47.664062 C 58.644531 47.945312 58.867188 48.03125 59.210938 48.007812 C 64.6875 47.640625 70.167969 47.285156 75.652344 46.921875 C 76.632812 46.859375 77.457031 47.175781 77.957031 48.039062 C 78.464844 48.914062 78.367188 49.804688 77.804688 50.648438 C 74.789062 55.160156 71.789062 59.679688 68.761719 64.183594 C 68.476562 64.613281 68.414062 64.945312 68.613281 65.4375 C 70.609375 70.382812 72.574219 75.339844 74.550781 80.289062 C 74.789062 80.886719 74.984375 81.480469 74.824219 82.136719 C 74.480469 83.5 73.203125 84.195312 71.765625 83.789062 C 68.585938 82.882812 65.40625 81.980469 62.226562 81.078125 C 60.15625 80.492188 58.082031 79.921875 56.011719 79.324219 C 55.625 79.210938 55.351562 79.265625 55.027344 79.535156 C 50.867188 83.011719 46.691406 86.46875 42.527344 89.941406 C 41.691406 90.636719 40.808594 90.941406 39.773438 90.445312 C 39.078125 90.113281 38.710938 89.527344 38.503906 88.722656 "/>
<path style=" stroke:none;fill-rule:nonzero;fill:rgb(89.019775%,25.099182%,47.44873%);fill-opacity:1;" d="M 306.101562 191.117188 C 305.8125 192.167969 303.691406 192.496094 301.367188 191.851562 C 299.042969 191.203125 297.394531 189.824219 297.683594 188.777344 C 297.976562 187.722656 300.09375 187.398438 302.421875 188.042969 C 304.746094 188.6875 306.390625 190.066406 306.101562 191.117188 "/>
<path style=" stroke:none;fill-rule:nonzero;fill:rgb(56.858826%,56.079102%,56.079102%);fill-opacity:1;" d="M 300.675781 189.25 L 315.808594 76.066406 L 318.34375 76.402344 L 303.210938 189.589844 L 300.675781 189.25 "/>
<path style=" stroke:none;fill-rule:nonzero;fill:rgb(96.859741%,59.21936%,10.5896%);fill-opacity:1;" d="M 296.773438 95.777344 C 297.167969 94.546875 297.589844 93.238281 298.011719 91.933594 C 299.394531 87.675781 300.785156 83.421875 302.152344 79.164062 C 302.210938 78.972656 302.105469 78.667969 301.972656 78.492188 C 299.09375 74.6875 296.195312 70.894531 293.300781 67.101562 C 292.804688 66.445312 292.304688 65.785156 291.796875 65.136719 C 291.164062 64.332031 290.925781 63.453125 291.378906 62.5 C 291.839844 61.527344 292.679688 61.132812 293.730469 61.136719 C 296.808594 61.140625 299.886719 61.136719 302.960938 61.140625 C 305.488281 61.144531 308.015625 61.160156 310.546875 61.132812 C 310.796875 61.128906 311.136719 60.925781 311.285156 60.707031 C 313.863281 57.003906 316.417969 53.28125 318.976562 49.5625 C 319.578125 48.6875 320.199219 47.832031 320.785156 46.945312 C 321.378906 46.039062 322.203125 45.691406 323.257812 45.847656 C 324.28125 45.996094 324.894531 46.621094 325.207031 47.578125 C 326.328125 51.054688 327.453125 54.53125 328.574219 58.007812 C 329.171875 59.859375 329.777344 61.707031 330.355469 63.558594 C 330.464844 63.90625 330.648438 64.0625 330.984375 64.164062 C 336.359375 65.757812 341.730469 67.363281 347.101562 68.964844 C 348.066406 69.25 348.738281 69.84375 348.914062 70.851562 C 349.089844 71.871094 348.6875 72.683594 347.84375 73.292969 C 343.363281 76.539062 338.894531 79.800781 334.40625 83.039062 C 333.980469 83.34375 333.800781 83.640625 333.816406 84.183594 C 333.984375 89.625 334.109375 95.0625 334.253906 100.5 C 334.269531 101.160156 334.242188 101.796875 333.855469 102.367188 C 333.050781 103.554688 331.578125 103.761719 330.347656 102.863281 C 327.625 100.871094 324.902344 98.875 322.175781 96.882812 C 320.402344 95.585938 318.621094 94.304688 316.851562 92.996094 C 316.519531 92.753906 316.238281 92.707031 315.832031 92.847656 C 310.621094 94.699219 305.402344 96.523438 300.191406 98.371094 C 299.144531 98.742188 298.191406 98.714844 297.375 97.875 C 296.832031 97.3125 296.6875 96.617188 296.773438 95.777344 "/>
<path style=" stroke:none;fill-rule:nonzero;fill:rgb(95.289612%,80.778503%,9.799194%);fill-opacity:1;" d="M 296.648438 93.445312 C 297.046875 92.214844 297.464844 90.910156 297.890625 89.601562 C 299.273438 85.34375 300.664062 81.09375 302.027344 76.832031 C 302.089844 76.644531 301.988281 76.332031 301.855469 76.160156 C 298.96875 72.359375 296.074219 68.5625 293.179688 64.769531 C 292.679688 64.113281 292.183594 63.453125 291.675781 62.804688 C 291.046875 62 290.800781 61.121094 291.257812 60.167969 C 291.71875 59.195312 292.558594 58.800781 293.609375 58.800781 C 296.6875 58.808594 299.761719 58.804688 302.839844 58.808594 C 305.367188 58.8125 307.898438 58.828125 310.421875 58.800781 C 310.675781 58.800781 311.011719 58.59375 311.164062 58.375 C 313.742188 54.671875 316.292969 50.949219 318.855469 47.230469 C 319.457031 46.359375 320.078125 45.5 320.660156 44.613281 C 321.261719 43.707031 322.085938 43.363281 323.136719 43.515625 C 324.160156 43.664062 324.773438 44.289062 325.085938 45.246094 C 326.210938 48.722656 327.332031 52.199219 328.453125 55.675781 C 329.050781 57.527344 329.65625 59.375 330.234375 61.226562 C 330.34375 61.574219 330.523438 61.730469 330.863281 61.832031 C 336.238281 63.421875 341.605469 65.03125 346.980469 66.628906 C 347.945312 66.921875 348.617188 67.515625 348.789062 68.519531 C 348.96875 69.539062 348.5625 70.351562 347.722656 70.964844 C 343.242188 74.207031 338.769531 77.46875 334.28125 80.703125 C 333.859375 81.011719 333.679688 81.304688 333.699219 81.851562 C 333.859375 87.292969 333.984375 92.734375 334.128906 98.171875 C 334.148438 98.828125 334.121094 99.46875 333.734375 100.035156 C 332.929688 101.222656 331.457031 101.433594 330.226562 100.53125 C 327.503906 98.539062 324.777344 96.542969 322.054688 94.550781 C 320.28125 93.257812 318.5 91.972656 316.734375 90.667969 C 316.398438 90.421875 316.113281 90.375 315.710938 90.519531 C 310.5 92.367188 305.285156 94.195312 300.074219 96.039062 C 299.023438 96.410156 298.070312 96.386719 297.253906 95.542969 C 296.707031 94.980469 296.566406 94.285156 296.648438 93.445312 "/>
<path style=" stroke:none;fill-rule:nonzero;fill:rgb(89.019775%,25.099182%,47.44873%);fill-opacity:1;" d="M 275.15625 181.050781 C 275.035156 181.816406 273.566406 182.210938 271.878906 181.945312 C 270.195312 181.671875 268.925781 180.832031 269.046875 180.070312 C 269.167969 179.308594 270.636719 178.910156 272.320312 179.179688 C 274.007812 179.449219 275.277344 180.289062 275.15625 181.050781 "/>
<path style=" stroke:none;fill-rule:nonzero;fill:rgb(56.858826%,56.079102%,56.079102%);fill-opacity:1;" d="M 271.191406 180.167969 L 272.898438 99.285156 L 274.707031 99.324219 L 273 180.207031 L 271.191406 180.167969 "/>
<path style=" stroke:none;fill-rule:nonzero;fill:rgb(96.859741%,59.21936%,10.5896%);fill-opacity:1;" d="M 263.777344 106.535156 C 263.917969 105.863281 264.058594 105.152344 264.203125 104.4375 C 264.679688 102.121094 265.160156 99.800781 265.628906 97.480469 C 265.648438 97.378906 265.574219 97.222656 265.496094 97.136719 C 263.753906 95.308594 262.007812 93.488281 260.261719 91.664062 C 259.960938 91.347656 259.664062 91.03125 259.355469 90.722656 C 258.976562 90.335938 258.800781 89.886719 258.980469 89.359375 C 259.167969 88.824219 259.582031 88.5625 260.136719 88.503906 C 261.753906 88.320312 263.371094 88.140625 264.988281 87.960938 C 266.316406 87.8125 267.648438 87.667969 268.976562 87.503906 C 269.109375 87.488281 269.273438 87.359375 269.339844 87.242188 C 270.472656 85.136719 271.597656 83.03125 272.722656 80.925781 C 272.988281 80.429688 273.265625 79.941406 273.519531 79.441406 C 273.78125 78.929688 274.191406 78.699219 274.753906 78.714844 C 275.300781 78.734375 275.664062 79.027344 275.882812 79.511719 C 276.675781 81.273438 277.472656 83.03125 278.269531 84.796875 C 278.691406 85.730469 279.121094 86.664062 279.53125 87.609375 C 279.609375 87.78125 279.714844 87.855469 279.898438 87.886719 C 282.816406 88.40625 285.734375 88.933594 288.652344 89.457031 C 289.175781 89.550781 289.566406 89.824219 289.714844 90.339844 C 289.871094 90.867188 289.707031 91.316406 289.300781 91.6875 C 287.132812 93.660156 284.980469 95.640625 282.808594 97.605469 C 282.605469 97.792969 282.53125 97.957031 282.566406 98.242188 C 282.976562 101.09375 283.363281 103.945312 283.761719 106.796875 C 283.808594 107.140625 283.832031 107.476562 283.664062 107.800781 C 283.308594 108.472656 282.546875 108.667969 281.847656 108.269531 C 280.296875 107.378906 278.75 106.496094 277.199219 105.609375 C 276.191406 105.03125 275.175781 104.464844 274.171875 103.882812 C 273.980469 103.773438 273.828125 103.765625 273.625 103.863281 C 270.996094 105.144531 268.359375 106.414062 265.730469 107.691406 C 265.203125 107.953125 264.699219 107.992188 264.21875 107.597656 C 263.902344 107.335938 263.785156 106.980469 263.777344 106.535156 "/>
<path style=" stroke:none;fill-rule:nonzero;fill:rgb(95.289612%,80.778503%,9.799194%);fill-opacity:1;" d="M 263.578125 105.3125 C 263.714844 104.644531 263.859375 103.929688 264.003906 103.21875 C 264.480469 100.902344 264.960938 98.582031 265.425781 96.261719 C 265.449219 96.160156 265.375 96.003906 265.292969 95.917969 C 263.550781 94.09375 261.804688 92.269531 260.0625 90.445312 C 259.757812 90.128906 259.460938 89.8125 259.152344 89.5 C 258.777344 89.117188 258.597656 88.667969 258.78125 88.140625 C 258.964844 87.601562 259.382812 87.347656 259.9375 87.285156 C 261.554688 87.105469 263.167969 86.921875 264.785156 86.738281 C 266.117188 86.589844 267.445312 86.453125 268.773438 86.289062 C 268.90625 86.273438 269.070312 86.140625 269.136719 86.019531 C 270.273438 83.921875 271.394531 81.8125 272.523438 79.703125 C 272.789062 79.210938 273.066406 78.722656 273.316406 78.222656 C 273.578125 77.710938 273.992188 77.480469 274.554688 77.5 C 275.101562 77.515625 275.460938 77.808594 275.683594 78.292969 C 276.476562 80.050781 277.269531 81.816406 278.066406 83.574219 C 278.488281 84.511719 278.917969 85.449219 279.328125 86.386719 C 279.40625 86.5625 279.511719 86.636719 279.695312 86.667969 C 282.617188 87.1875 285.53125 87.714844 288.453125 88.238281 C 288.976562 88.332031 289.363281 88.601562 289.515625 89.121094 C 289.667969 89.648438 289.503906 90.097656 289.097656 90.46875 C 286.933594 92.441406 284.777344 94.421875 282.605469 96.386719 C 282.402344 96.574219 282.328125 96.738281 282.367188 97.023438 C 282.773438 99.871094 283.160156 102.726562 283.5625 105.578125 C 283.605469 105.921875 283.632812 106.257812 283.460938 106.582031 C 283.105469 107.253906 282.347656 107.449219 281.648438 107.050781 C 280.097656 106.164062 278.546875 105.273438 276.996094 104.390625 C 275.988281 103.816406 274.976562 103.246094 273.972656 102.660156 C 273.78125 102.550781 273.628906 102.546875 273.425781 102.644531 C 270.796875 103.929688 268.160156 105.195312 265.527344 106.476562 C 265 106.730469 264.496094 106.777344 264.019531 106.382812 C 263.699219 106.117188 263.585938 105.761719 263.578125 105.3125 "/>
<path style=" stroke:none;fill-rule:nonzero;fill:rgb(89.019775%,25.099182%,47.44873%);fill-opacity:1;" d="M 108.667969 178.523438 C 108.609375 179.292969 107.179688 179.816406 105.476562 179.6875 C 103.773438 179.558594 102.4375 178.832031 102.496094 178.058594 C 102.550781 177.289062 103.984375 176.769531 105.683594 176.898438 C 107.390625 177.023438 108.726562 177.753906 108.667969 178.523438 "/>
<path style=" stroke:none;fill-rule:nonzero;fill:rgb(56.858826%,56.079102%,56.079102%);fill-opacity:1;" d="M 104.640625 177.976562 L 99.601562 97.230469 L 101.410156 97.117188 L 106.449219 177.863281 L 104.640625 177.976562 "/>
<path style=" stroke:none;fill-rule:nonzero;fill:rgb(96.859741%,59.21936%,10.5896%);fill-opacity:1;" d="M 91.117188 105.214844 C 91.199219 104.539062 91.28125 103.816406 91.367188 103.09375 C 91.648438 100.742188 91.933594 98.398438 92.203125 96.042969 C 92.21875 95.9375 92.128906 95.789062 92.042969 95.714844 C 90.160156 94.035156 88.265625 92.363281 86.375 90.695312 C 86.046875 90.40625 85.722656 90.113281 85.394531 89.828125 C 84.984375 89.476562 84.765625 89.046875 84.90625 88.507812 C 85.042969 87.953125 85.441406 87.664062 85.984375 87.558594 C 87.582031 87.242188 89.179688 86.925781 90.773438 86.609375 C 92.085938 86.347656 93.402344 86.097656 94.707031 85.824219 C 94.839844 85.792969 94.996094 85.65625 95.050781 85.527344 C 96.007812 83.335938 96.953125 81.144531 97.898438 78.949219 C 98.121094 78.433594 98.351562 77.925781 98.566406 77.40625 C 98.78125 76.875 99.175781 76.609375 99.734375 76.582031 C 100.285156 76.550781 100.667969 76.8125 100.925781 77.277344 C 101.867188 78.964844 102.804688 80.652344 103.746094 82.34375 C 104.242188 83.242188 104.746094 84.136719 105.238281 85.042969 C 105.328125 85.210938 105.441406 85.269531 105.625 85.289062 C 108.578125 85.5625 111.53125 85.84375 114.480469 86.121094 C 115.011719 86.167969 115.421875 86.40625 115.617188 86.910156 C 115.8125 87.421875 115.683594 87.886719 115.308594 88.289062 C 113.320312 90.433594 111.332031 92.585938 109.339844 94.726562 C 109.148438 94.933594 109.085938 95.101562 109.152344 95.382812 C 109.792969 98.191406 110.417969 101 111.050781 103.808594 C 111.128906 104.148438 111.179688 104.480469 111.035156 104.816406 C 110.742188 105.511719 110 105.773438 109.269531 105.4375 C 107.648438 104.679688 106.03125 103.925781 104.414062 103.171875 C 103.359375 102.683594 102.304688 102.203125 101.253906 101.707031 C 101.054688 101.613281 100.902344 101.617188 100.707031 101.734375 C 98.195312 103.230469 95.675781 104.714844 93.160156 106.210938 C 92.652344 106.511719 92.15625 106.59375 91.648438 106.242188 C 91.304688 106.007812 91.160156 105.660156 91.117188 105.214844 "/>
<path style=" stroke:none;fill-rule:nonzero;fill:rgb(95.289612%,80.778503%,9.799194%);fill-opacity:1;" d="M 90.816406 104.019531 C 90.898438 103.339844 90.976562 102.621094 91.0625 101.898438 C 91.347656 99.546875 91.632812 97.199219 91.902344 94.84375 C 91.914062 94.742188 91.828125 94.59375 91.742188 94.515625 C 89.855469 92.839844 87.964844 91.171875 86.074219 89.496094 C 85.746094 89.210938 85.421875 88.917969 85.089844 88.636719 C 84.679688 88.28125 84.464844 87.851562 84.601562 87.308594 C 84.742188 86.757812 85.136719 86.464844 85.683594 86.359375 C 87.28125 86.046875 88.875 85.726562 90.472656 85.410156 C 91.785156 85.152344 93.097656 84.898438 94.410156 84.625 C 94.539062 84.597656 94.691406 84.457031 94.746094 84.328125 C 95.703125 82.140625 96.648438 79.945312 97.597656 77.753906 C 97.820312 77.238281 98.050781 76.726562 98.261719 76.207031 C 98.480469 75.675781 98.875 75.414062 99.4375 75.382812 C 99.980469 75.355469 100.363281 75.617188 100.625 76.082031 C 101.5625 77.769531 102.503906 79.457031 103.441406 81.148438 C 103.941406 82.042969 104.445312 82.9375 104.9375 83.84375 C 105.027344 84.011719 105.140625 84.074219 105.324219 84.09375 C 108.273438 84.363281 111.226562 84.644531 114.179688 84.921875 C 114.710938 84.96875 115.121094 85.210938 115.3125 85.714844 C 115.507812 86.226562 115.382812 86.6875 115.007812 87.09375 C 113.019531 89.238281 111.035156 91.390625 109.035156 93.535156 C 108.84375 93.734375 108.785156 93.90625 108.847656 94.1875 C 109.492188 96.992188 110.117188 99.800781 110.75 102.609375 C 110.828125 102.949219 110.875 103.28125 110.734375 103.617188 C 110.4375 104.320312 109.695312 104.578125 108.964844 104.238281 C 107.347656 103.480469 105.730469 102.730469 104.113281 101.976562 C 103.058594 101.488281 102 101.003906 100.949219 100.507812 C 100.75 100.414062 100.597656 100.421875 100.40625 100.539062 C 97.890625 102.035156 95.371094 103.519531 92.859375 105.011719 C 92.351562 105.3125 91.855469 105.398438 91.34375 105.046875 C 91.003906 104.8125 90.859375 104.46875 90.816406 104.019531 "/>
</g>
</svg>
